<svg version="1.1" id="Layer_1" xmlns="http://www.w3.org/2000/svg" x="0" y="0" viewBox="0 0 1000 228.6" style="enable-background:new 0 0 1000 228.6" xml:space="preserve"><style>.st0{fill:#0033a1}</style><path class="st0" d="M152.2 138.9c16.7-35.8 4.7-78.4-28.3-100.3 12.8-13.2 26.7-26.2 41.3-38.6-17.1 10.1-33.3 21.7-48.4 34.5C77.7 14.1 29.4 29.3 9.1 68.4c-15.1 29-11 64.2 10.2 89C4 190.5 1.6 217 14.8 226c14.5 9.6 45.8-7.8 64.9-36.2 0 0-29.1 26.2-45.1 20.2-9.9-3.7-9.9-18.8-1.8-40.4 31.6 23.2 75.4 20 103.3-7.5l2.8 5.3c34.8-2.8 138.7-5.6 138.7-5.6-.2-5-69-.2-125.4-22.9zM9.6 105.2C9.6 66.4 41.1 35 79.9 35c10 0 19.9 2.2 29 6.3-34.5 30.2-63.3 66.3-85 106.6-9.3-12.3-14.4-27.3-14.3-42.7zm70.2 70.3c-15.8 0-31.1-5.3-43.5-15C50.2 129.1 78.5 87 117.2 45.8c30 18.9 41.2 57.2 26.1 89.4-12.2-5.5-23.5-12.8-33.4-21.8l21.2 39.8c-13.2 14.2-31.8 22.3-51.3 22.3zM628.5 97.9l13-17.3h-45.3l11.2-14.8h45.3l13-17.3h-90.4L513 131.1h90.5l13-17.3h-45.3l12-15.9h45.3zM691.3 48.5l-62.2 82.6h45.2l62.2-82.6h-45.2zM841.7 48.5l-31.5 41.9-9.7-41.9h-35.3L703 131.1h29.9l31.2-41.4 9.6 41.4h35.7l62.2-82.6h-29.9zM989.3 48.5h-72.5c-11.9 0-23.2 5.6-30.4 15.2l-37.5 49.7c-1.5 1.9-2.3 4.3-2.2 6.7 0 6.1 4.9 11.1 11 11.1h72.5c12 0 23.2-5.6 30.4-15.2l9-11.8h10.5l13.1-17.7h-55.6l-17.7 23.3c-1.9 2.5-4.8 4-7.9 4h-12.8c-1.6 0-2.9-1.3-2.9-2.9 0-.6.2-1.2.6-1.7l29.5-39.5c1.9-2.5 4.8-4 7.9-4h12.8c1.6 0 2.9 1.3 2.9 2.9 0 .6-.2 1.2-.6 1.7l-4.8 6.4h45.1l8-10.6c3.7-4.9 2.7-11.8-2.1-15.5-1.9-1.5-4.3-2.3-6.7-2.2l.4.1zM538.2 59.6c0-6.1-4.9-11-11-11h-72.5c-12 0-23.2 5.6-30.4 15.2l-37.5 49.7c-3.6 4.9-2.6 11.9 2.3 15.5 1.9 1.4 4.2 2.2 6.5 2.2h72.5c12 0 23.2-5.6 30.4-15.2L536 66.3c1.5-1.9 2.2-4.3 2.2-6.7zm-50.4 10.8-29.5 39.5c-1.9 2.5-4.8 4-7.9 4h-13c-1.6 0-2.9-1.3-2.9-2.9 0-.6.2-1.2.6-1.7l29.5-39.5c1.9-2.5 4.8-3.9 7.9-4h12.8c1.6 0 2.9 1.3 2.9 2.9 0 .6-.2 1.2-.6 1.7h.2z"/><path class="st0" d="M367.6 91.8c8.8-2 16.5-7 21.9-14.2l8.6-11.4c3.7-4.9 2.7-11.8-2.1-15.5-1.9-1.5-4.3-2.3-6.7-2.2h-91.5l-62.2 82.6h94.7c12 0 23.2-5.6 30.4-15.2l8.8-11.8c1.2-1.5 1.8-3.4 1.8-5.3 0-2.8-1.3-5.5-3.6-7.1l-.1.1zm-41.9 10.8-5.6 7.4c-1.9 2.5-4.8 4-7.9 4h-18.5l11.8-16h17.7c1.6 0 2.9 1.3 2.9 2.9 0 .6-.2 1.2-.6 1.7h.2zm24.2-32.1-4.8 6.3c-1.9 2.5-4.8 3.9-7.9 3.9h-18.5l11.1-14.8h17.7c1.6 0 2.9 1.3 2.9 2.9.1.6-.1 1.2-.5 1.7z"/></svg>