<svg version="1.1" id="Layer_1" xmlns="http://www.w3.org/2000/svg" x="0" y="0" viewBox="0 0 2000 462.2" style="enable-background:new 0 0 2000 462.2" xml:space="preserve"><style>.st0{fill:#003f86}</style><path class="st0" d="M1633.4 169.5c-6.2 15.1-12.5 31.2-19.3 46.9-56.2-47.9-137.4-55.7-208.8-38.5-43.2 9.9-89.6 45.3-97.9 92.1-7.8 47.4 1.6 95.8 40.1 125.5 54.7 41.7 138 42.2 204.1 27.1l17.7-6.8c0-12.8-.2-39.9-.2-87.5-13.5 0-30.5 1.1-44.6 2.6 0-10.9 1.1-22.4 0-33.3 35.4 5.2 75.8 2.7 105.1 3.6V435c-76.1 20.2-171.7 30.2-256 13.5-55.7-10.4-117.7-48.9-132.2-108.3-14.1-54.7 2.1-110.9 47.4-145.3 72.4-54.1 172.9-58.8 264-46.8 28.1 3.7 55.7 10 80.6 21.4M1994.2 150.4c-3.1 12-.5 22.2-.5 34.1-30.7-4.7-64.6-5.2-96.3-5.2h-143.7c0 89.1-.5 61.4-.5 92.1 76 .5 152-.5 228.5-1.5-2.1 10.9-2.1 21.3-.5 31.8-76-2.6-151.5 0-227.5 0 0 109.9-.5 78.6 0 116.1 46.8 1.1 93.2 0 140.1-.5 34.9-.5 71.1-.2 105.5-5.4 0 12-2.4 29 .7 40.5h-308.2c0-106.2-.5-202.8.1-302.8 125.5 0 18.3.8 302.3.8M1178.8 155.8v301.3H1154c-94.2-74.9-193.2-151.8-287.9-224.1-.2 19.2-.1 89.9-.1 221.1-13-1-30.5-2.1-44 0V155c-.5-.5 33.3 0 34.7 0 8.5 0 185.6 139.4 278.3 210.8.2-113.6 0-89.5 0-210 14 1.6 30.3.6 43.8 0M752.8 154.6v184.7c0 42.2-29.4 82.2-69 100.5-51 23.4-113.5 27.1-171.8 17.7-42.1-6.8-90.1-25.5-107.2-70.8-5.7-15.6-8.3-32.3-8.9-50l.6-182c37.1 4.5 29.3 2.5 60.5 0 0 152.9-1 125.2 1.1 187.7 1 31.3 18.5 66.2 51.3 77.6 41.1 14.1 92.7 16.1 134.8 2.6 26.5-8.4 51.6-33.3 59.3-60.4 3.6-13.5 4.7-28.1 5.7-42.7V155.2c26.4 3.3 28.3 2 43.6-.6M244.4 320c-53.6-18.7-112.8-10.8-173-10.9L71 427.8c84.7.3 91.1.5 134.8-2.7 25.5-2.1 51.6-13 64.6-36.5 9.4-16.1 6.2-40.6-5.2-54.6-5.7-6.8-13-11.5-20.8-14m-34.3-132.8c-108.8-.8-94.3-1.1-139.1 0 0 75-.4 5.9-.4 92.7 45.3.5 94.7 2.1 139.5-6.2 20.8-3.6 46.3-14.6 52.6-38.5 3.1-13 .5-26-9.4-34.8-12-10.1-27.6-13.1-43.2-13.2m88-12c18.7 12 26 33.8 21.9 55.2-6.2 33.3-42.2 52.1-69.8 61.4 30.2 5.2 63.5 11.5 80.7 40.6 14.6 25 11.5 62-8.3 83.8-38.5 42.1-96.8 38.5-151.5 41.1L.2 457.2C.2 301 0 285.5 0 154.6c97.1 0 114.8.3 173.1.3 41.2.5 89.6-1 125 20.3M583.9 0c-26.3 0-50.6 8.8-70.1 23.6H654C634.6 8.8 610.3 0 583.9 0M699.8 115.8c0-4.8-.3-9.5-.9-14.1H469c-.5 4.6-.9 9.3-.9 14.1 0 4 .2 8 .6 11.9h230.5c.4-3.9.6-7.8.6-11.9"/><path class="st0" d="M583.9 231.7c27.7 0 53-9.7 72.9-25.8H511c19.9 16.1 45.3 25.8 72.9 25.8M679 49.7H488.9c-5.6 8-10.2 16.7-13.6 26h217.4c-3.5-9.3-8.2-18-13.7-26M474.5 153.8c3.2 9.3 7.5 18 12.9 26h193.1c5.3-8 9.7-16.8 12.9-26H474.5z"/></svg>