<svg width="111" height="40" viewBox="0 0 111 40" fill="none" xmlns="http://www.w3.org/2000/svg">
<g clip-path="url(#clip0_11_11)">
<path d="M81.9571 3.06919C81.9571 3.06919 79.7622 4.02307 77.2117 7.08363C74.6611 10.1442 73.1776 13.5924 74.2727 14.5106C74.6939 14.8575 75.6673 14.9238 77.4363 13.1844C79.0649 11.6388 80.3472 9.70552 81.1755 7.53252C82.3221 4.50256 81.9571 3.1049 81.9571 3.06919ZM95.9171 8.58331C93.0811 6.99692 91.0126 5.05856 88.8552 3.85984C86.8007 2.70703 85.4717 2.22754 83.8056 2.47238C83.5716 2.51829 83.347 2.5795 83.1224 2.66112C83.1224 2.66112 83.9788 5.84921 80.5718 11.2001C77.1228 16.6275 73.9919 16.5918 73.0981 15.1023C72.1668 13.5312 73.3695 10.3227 75.3818 7.4662C77.4878 4.48215 81.1849 2.0031 81.1849 2.0031C81.1849 2.0031 80.0056 1.21755 77.1087 3.00798C74.2821 4.7474 69.4244 8.88936 64.9083 15.8828C60.3922 22.8761 59.503 26.7223 58.8572 29.7522C58.2114 32.7822 58.7964 36.0264 61.8804 36.0264C64.9644 36.0264 68.5492 30.905 69.5601 29.1248C71.4414 25.8092 72.6675 20.7184 70.1076 21.4173C68.8487 21.759 67.8238 23.2842 67.178 24.7482C66.7709 25.6919 66.462 26.6763 66.2514 27.6914C65.3575 28.0944 64.5152 28.6249 63.7523 29.2778C62.9053 29.9614 62.1097 30.7265 61.3843 31.5579C61.3843 31.5579 61.3937 29.135 63.1674 25.2175C64.9364 21.3 68.1889 19.5095 70.0281 19.3412C71.6847 19.1984 73.8468 20.7286 72.017 26.3907C70.1872 32.0527 64.7913 38.9339 59.1193 39.0155C53.8872 39.092 50.4615 31.813 57.7481 19.1116C65.8115 5.07386 75.2695 0.768669 78.3395 0.289181C81.4095 -0.190308 82.4063 1.28386 82.4063 1.28386C84.2549 0.457512 86.2485 0.100446 88.2421 0.23307C91.9907 0.508521 94.8922 3.40075 98.7157 5.43093C97.7236 6.47662 96.7782 7.56312 95.9171 8.58331ZM112.76 3.85984C110.163 5.67577 106.569 7.32338 103.115 6.97141C102.24 7.95589 101.304 9.0985 100.368 10.338C106.358 11.6286 111.604 7.58352 114.398 4.14039C115.414 2.90086 116.289 1.53381 117 0.0647391C115.727 1.5032 114.304 2.77844 112.76 3.85984ZM104.786 22.2538C104.832 22.1671 104.87 22.0753 104.898 21.9835C104.86 21.6774 104.631 21.4377 104.35 21.4122C103.779 21.3816 103.002 21.4989 100.962 23.9626C99.2679 25.9979 97.8125 28.2474 96.6238 30.6704C95.4538 32.9964 94.9812 34.7307 95.6551 35.1796C95.875 35.302 96.1277 35.3326 96.3617 35.2561C96.8157 35.1388 97.3305 34.6746 98.1167 33.685C98.4817 33.2209 98.8889 32.5628 99.3756 31.8334C100.719 29.8287 104.112 23.5291 104.786 22.2538ZM83.581 24.9318C83.9226 23.9626 84.3532 22.0549 83.4546 21.3102C82.4859 20.5144 80.0196 22.3814 80.0056 24.2891C79.9868 26.2479 81.7418 27.1303 82.163 27.2579C82.4017 27.3293 82.4859 27.3191 82.6029 27.1099C82.9773 26.406 83.3049 25.6766 83.581 24.9318ZM81.7137 28.4923C81.1007 28.1862 80.5297 27.7883 80.0149 27.314C79.5001 26.8447 79.0696 26.2734 78.742 25.6307C78.7092 25.5694 78.6718 25.6153 78.6344 25.6715C78.5969 25.7276 78.4425 25.8806 77.1274 27.9822C75.8124 30.0838 73.7907 34.44 75.6205 35.1847C76.7905 35.6591 78.742 33.4249 79.8043 31.9405C80.5297 30.905 81.1849 29.8185 81.7699 28.681C81.8307 28.5433 81.7746 28.5178 81.7137 28.4923ZM102.474 33.5218C101.978 34.389 101.411 36.0519 103.045 35.0164C105.043 33.7564 107.893 29.0483 107.893 29.0483H109.185C108.01 31.0172 106.7 32.8893 105.272 34.644C103.246 37.0925 100.775 39.3114 99.0339 39.092C97.0029 38.8319 97.6393 35.9243 97.6393 35.9243C97.6393 35.9243 94.7331 39.3012 92.7208 39.0563C90.0018 38.7299 90.8301 35.0674 90.8301 35.0674C90.8301 35.0674 87.7554 39.1787 85.6635 39.0512C82.3783 38.8421 83.2066 34.491 84.1192 31.4253C84.6059 29.7879 85.0598 28.4974 85.0598 28.4974C85.0598 28.4974 84.7322 28.5892 84.0349 28.7065C83.6699 28.7626 83.0054 28.8034 83.0054 28.8034C83.0054 28.8034 81.6388 31.4304 80.5437 33.0117C79.4487 34.593 74.8015 40.0357 72.0638 38.9492C69.532 37.9392 70.3697 33.7207 71.8439 30.3643C73.9919 25.4725 80.0383 18.4485 83.5248 19.3769C87.1377 20.3308 83.6044 27.5231 83.6044 27.5231C83.6044 27.5231 83.6044 27.5486 83.6418 27.569C83.712 27.5996 83.9039 27.62 84.3391 27.5282C84.7884 27.4262 85.233 27.2834 85.6589 27.0997C85.6589 27.0997 89.2904 18.8056 93.3058 13.3833C97.3211 7.95589 105.324 -1.38393 108.469 0.875789C109.231 1.43179 108.885 3.34464 107.851 5.66557C107.383 5.8288 106.91 5.96653 106.433 6.07875C107.125 4.70659 107.584 3.55378 107.72 2.74783C108.192 -0.0576833 102.188 5.85941 97.8967 12.2101C95.3134 16.0409 93.0156 20.091 91.0314 24.3248C91.8082 23.8096 92.5476 23.2332 93.2449 22.6007C95.159 20.8715 96.9795 19.0198 98.6923 17.056C100.344 15.2145 101.893 13.266 103.33 11.2205C103.789 11.195 104.243 11.144 104.692 11.0675C103.124 13.3884 101.416 15.5869 99.5768 17.6579C97.864 19.5452 96.0107 21.5754 94.4009 23.0496C92.9641 24.3809 91.4479 25.6102 89.8614 26.7274C89.8614 26.7274 86.1081 34.9756 88.1485 35.5061C89.3466 35.8223 91.7193 31.8436 91.7193 31.8436C91.7193 31.8436 94.8127 26.7018 96.6753 24.3809C99.2165 21.2285 101.407 19.4075 103.597 19.3718C104.87 19.3463 105.623 20.8256 105.623 20.8256L106.222 19.8156H109.91C109.91 19.8156 103.017 32.5628 102.469 33.5218M112.76 3.85984C110.163 5.67577 106.569 7.32338 103.115 6.97141C102.24 7.95589 101.304 9.0985 100.368 10.338C106.358 11.6286 111.604 7.58352 114.398 4.14039C115.418 2.90086 116.289 1.53381 117 0.0647391C115.727 1.5032 114.304 2.77844 112.76 3.85984ZM60.9351 10.1085H57.4251L55.4409 13.6026H58.9508L60.9351 10.1085ZM44.3215 22.2079C45.8144 19.9788 49.9327 12.1591 49.9327 12.1591C49.8952 11.853 49.6706 11.6133 49.3851 11.5878C48.8142 11.5572 47.8642 11.7663 45.9735 14.3474C44.0828 16.9284 42.618 18.9739 41.551 21.1061C40.381 23.4321 39.8662 25.0746 40.5401 25.5235C40.7601 25.6409 41.0081 25.6715 41.2468 25.6C41.682 25.4776 42.2577 25.0032 43.0439 24.0137C43.4089 23.5546 43.8301 22.9374 44.3215 22.2079ZM25.4897 11.6337C24.5209 10.8379 22.0546 12.7049 22.0406 14.6126C22.0265 16.5714 24.2588 17.1733 24.549 17.1835C24.6332 17.1937 24.7175 17.1733 24.7924 17.1274C24.8438 17.0968 24.886 17.0458 24.9093 16.9846C25.1714 16.4235 25.4101 15.847 25.616 15.2553C25.9576 14.2862 26.3929 12.3835 25.4897 11.6337ZM24.0249 18.3771C23.3556 18.1476 22.7145 17.8313 22.1248 17.4232C21.5492 17.0152 21.0812 16.449 20.7677 15.7858C20.7349 15.7246 20.6975 15.7705 20.66 15.8266C20.6226 15.8828 20.426 16.1531 19.1063 18.2649C17.7866 20.3767 15.8304 24.6921 17.6649 25.4317C18.8349 25.9163 20.8051 23.6566 21.8768 22.1824C22.677 21.0245 23.4165 19.8156 24.0951 18.5607C24.1372 18.4332 24.0951 18.4077 24.0295 18.3822M52.6891 19.6779H53.9761C53.9761 19.6779 47.5319 29.8389 43.8956 29.3645C41.8645 29.1044 42.4683 26.3754 42.4683 26.3754C42.4683 26.3754 39.6135 30.0175 36.9928 29.2778C34.6154 28.6147 36.1504 24.3044 36.1504 24.3044C35.879 24.4217 30.7358 30.7418 27.1183 29.2268C23.3369 27.6353 25.2978 22.3405 26.0185 20.7491C26.6269 19.4075 27.3054 18.1017 27.3054 18.1017C27.3054 18.1017 26.7251 18.2802 26.3554 18.372C25.9857 18.4638 25.4475 18.5812 25.4475 18.5812C25.4475 18.5812 23.6598 21.7488 22.5647 23.3352C21.4696 24.9216 16.8178 30.3439 14.0801 29.2625C11.3424 28.1811 12.021 24.0035 13.5606 20.6878C16.055 15.3063 21.9797 8.69553 25.5458 9.70042C29.1493 10.7002 26.1682 17.0713 26.1682 17.0713C26.1682 17.0713 26.8843 17.1733 28.6018 15.8981C31.0728 14.0566 34.3393 9.11381 37.8726 9.69531C39.5386 9.97077 41.0924 11.8224 38.9677 15.3472C38.2891 16.4796 37.1566 17.4895 36.2861 16.4898C35.7433 15.8675 36.2159 14.735 36.7869 13.9597C37.2361 13.317 37.9475 12.9599 38.6869 13.0109C38.6869 13.0109 39.2719 11.5572 37.7837 11.5827C36.581 11.6082 33.539 14.6636 31.8215 17.7446C30.2444 20.5756 27.8577 25.4011 30.2538 26.4519C32.4486 27.416 36.6324 22.009 38.5699 19.1729C40.5074 16.3367 44.9205 9.91465 48.6223 9.65961C49.8952 9.56779 50.6534 10.8328 50.6534 10.8328L51.0792 10.0932H54.781C54.781 10.0932 47.808 22.7741 47.2651 23.7331C46.8393 24.4829 46.2683 26.1714 47.8361 25.2277C49.4038 24.284 52.6891 19.6779 52.6891 19.6779ZM50.6768 39.9949C47.9531 37.9392 44.6865 36.8986 41.3778 37.0364C39.5574 37.0925 37.8726 38.0871 36.8384 39.7194C35.425 37.0364 32.6358 35.3888 28.321 35.4245C21.348 35.5112 14.4358 39.0155 8.95565 39.0104C3.70482 39.0104 -0.123318 35.4143 0.00303848 29.0228C0.232353 17.816 8.92289 7.72125 15.4092 3.17631C19.1484 0.569732 22.2746 -0.205611 24.3197 0.0443354C25.8126 0.222868 27.605 2.10512 26.4724 4.86982C24.8111 8.91487 22.5133 8.58331 22.5975 6.65005C22.6443 5.39012 23.4118 4.59947 23.9921 4.16079C24.3571 3.88534 25.0076 3.80373 25.3446 3.79863C25.6722 3.49767 25.9155 1.28386 23.2527 2.0082C20.5898 2.73253 17.356 5.59926 14.286 9.29234C11.216 12.9854 6.43787 19.9737 5.25386 27.314C4.70164 30.7163 5.06199 36.919 12.4656 36.8527C18.7413 36.7966 27.9934 32.2925 36.4967 32.3843C39.796 32.42 42.6695 33.3892 44.9065 34.894C47.106 36.3681 49.7408 38.5258 50.6768 40" fill="#E61D2B"/>
</g>
<defs>
<clipPath id="clip0_11_11">
<rect width="111" height="40" fill="white"/>
</clipPath>
</defs>
</svg>
