<svg xmlns="http://www.w3.org/2000/svg" viewBox="0 0 3000 590.7" style="enable-background:new 0 0 3000 590.7" xml:space="preserve"><path d="m348.1 111.1-174 111.1 174.1 111.1-174.1 111.1L0 332.4l174.1-111.1L0 111.1 174.1 0l174 111.1zm-175 368.5 174.1-111.1 174.1 111.1-174.1 111.1-174.1-111.1zm175-147.2 174.1-111.1-174.1-110.2L521.3 0l174.1 111.1-174.1 111.1 174.1 111.1-174.1 111.1-173.2-112z" style="fill:#0061ff"/><path d="M831.5 111.1h140.7c89.8 0 163.9 51.9 163.9 170.4v25c0 119.4-69.4 173.1-161.1 173.1H831.5V111.1zm78.7 66.7V412h60.2c50.9 0 85.2-33.3 85.2-107.4v-19.4c0-74.1-36.1-107.4-88-107.4h-57.4zm267.6 3.7h63l10.2 69.4c12-47.2 42.6-72.2 98.1-72.2h19.4v79.6h-32.4c-63.9 0-79.6 22.2-79.6 85.2v137h-77.8v-299h-.9zM1384.3 337v-8.3c0-100 63.9-154.6 150.9-154.6 88.9 0 150.9 54.6 150.9 154.6v8.3c0 98.1-60.2 150.9-150.9 150.9-96.3-.9-150.9-52.7-150.9-150.9zm222.2-.9v-7.4c0-55.6-27.8-88.9-72.2-88.9-43.5 0-72.2 30.6-72.2 88.9v7.4c0 53.7 27.8 84.3 72.2 84.3 44.4-1 72.2-30.6 72.2-84.3zm120.4-154.6h64.8l7.4 56.5c15.7-38 49.1-63.9 98.1-63.9 75.9 0 125.9 54.6 125.9 155.6v8.3c0 98.1-55.6 150-125.9 150-47.2 0-79.6-21.3-95.4-55.6v150.9h-75.9l1-401.8zm217.5 154.6v-6.5c0-59.3-30.6-88.9-71.3-88.9-43.5 0-72.2 33.3-72.2 88.9v5.6c0 52.8 27.8 86.1 71.3 86.1 44.5-.9 72.2-29.6 72.2-85.2zM2138 425l-6.5 54.6h-66.7V81.5h75.9v152.8c16.7-38.9 50-60.2 97.2-60.2 71.3.9 124.1 50 124.1 149.1v9.3c0 99.1-50 155.6-125.9 155.6-50-1.1-82.4-24.2-98.1-63.1zm144.4-92.6V325c0-54.6-29.6-85.2-71.3-85.2-42.6 0-72.2 34.3-72.2 86.1v6.5c0 55.6 28.7 88 71.3 88 45.4 0 72.2-28.7 72.2-88zm113 4.6v-8.3c0-100 63.9-154.6 150.9-154.6 88.9 0 150.9 54.6 150.9 154.6v8.3c0 98.1-61.1 150.9-150.9 150.9-96.3-.9-150.9-52.7-150.9-150.9zm223.1-.9v-7.4c0-55.6-27.8-88.9-72.2-88.9-43.5 0-72.2 30.6-72.2 88.9v7.4c0 53.7 27.8 84.3 72.2 84.3 44.4-1 72.2-30.6 72.2-84.3zm180.6-11.1-104.6-143.5h89.8l60.2 89.8 61.1-89.8h88.9L2888 324.1l112 155.6h-88l-68.5-99.1-66.7 99.1h-91.7l114-154.7z"/></svg>